<svg width="20" height="20" viewBox="0 0 20 20" fill="none" xmlns="http://www.w3.org/2000/svg">
<path opacity="0.4" fill-rule="evenodd" clip-rule="evenodd" d="M11.8994 1.79329C11.5911 1.66663 11.1994 1.66663 10.4169 1.66663C9.63443 1.66663 9.24276 1.66663 8.93443 1.79329C8.52397 1.9618 8.19725 2.28643 8.0261 2.69579C7.94776 2.88163 7.91776 3.09913 7.90526 3.41496C7.89971 3.6438 7.83587 3.86743 7.7198 4.06473C7.60373 4.26202 7.43926 4.42645 7.24193 4.54246C7.04088 4.65421 6.81488 4.71341 6.58487 4.71458C6.35485 4.71574 6.12826 4.65884 5.9261 4.54913C5.64443 4.40079 5.44026 4.31913 5.2386 4.29246C4.79739 4.23453 4.35116 4.35313 3.99693 4.62246C3.73193 4.82413 3.5361 5.16079 3.14526 5.83329C2.7536 6.50579 2.5586 6.84163 2.51443 7.17079C2.4561 7.60913 2.5761 8.05246 2.84776 8.40329C2.9711 8.56329 3.14526 8.69746 3.41443 8.86579C3.81193 9.11329 4.06693 9.53496 4.06693 9.99996C4.06693 10.465 3.81193 10.8866 3.41526 11.1333C3.14526 11.3025 2.9711 11.4366 2.84693 11.5966C2.71283 11.7699 2.6144 11.9681 2.55733 12.1796C2.50026 12.3911 2.48568 12.6119 2.51443 12.8291C2.5586 13.1575 2.7536 13.4941 3.14526 14.1666L3.14994 14.1747C3.53849 14.8418 3.73299 15.1758 3.99693 15.3775C4.35026 15.6466 4.79693 15.765 5.2386 15.7075C5.44026 15.6808 5.64443 15.5991 5.9261 15.4508C6.12837 15.3409 6.35511 15.2839 6.58529 15.2851C6.81546 15.2863 7.04161 15.3456 7.24276 15.4575C7.64776 15.6908 7.88776 16.12 7.90526 16.585C7.91776 16.9016 7.94776 17.1183 8.0261 17.3041C8.1961 17.7125 8.52276 18.0375 8.93443 18.2066C9.24276 18.3333 9.63443 18.3333 10.4169 18.3333C11.1994 18.3333 11.5911 18.3333 11.8994 18.2066C12.3099 18.0381 12.6366 17.7135 12.8078 17.3041C12.8861 17.1183 12.9161 16.9016 12.9286 16.585C12.9453 16.12 13.1861 15.69 13.5919 15.4575C13.793 15.3457 14.019 15.2865 14.249 15.2853C14.479 15.2842 14.7056 15.3411 14.9078 15.4508C15.1894 15.5991 15.3936 15.6808 15.5953 15.7075C16.0369 15.7658 16.4836 15.6466 16.8369 15.3775C17.1019 15.1758 17.2978 14.8391 17.6886 14.1666C18.0803 13.4941 18.2753 13.1583 18.3194 12.8291C18.3481 12.6119 18.3333 12.3911 18.2761 12.1795C18.2189 11.968 18.1203 11.7698 17.9861 11.5966C17.8628 11.4366 17.6886 11.3025 17.4194 11.1341C17.0219 10.8866 16.7669 10.465 16.7669 9.99996C16.7669 9.53496 17.0219 9.11329 17.4186 8.86663C17.6886 8.69746 17.8628 8.56329 17.9869 8.40329C18.121 8.23001 18.2195 8.03187 18.2765 7.82032C18.3336 7.60877 18.3482 7.38801 18.3194 7.17079C18.2753 6.84246 18.0803 6.50579 17.6886 5.83329L17.6839 5.82525C17.2954 5.15812 17.1009 4.82415 16.8369 4.62246C16.4827 4.35313 16.0365 4.23453 15.5953 4.29246C15.3936 4.31913 15.1894 4.40079 14.9078 4.54913C14.7055 4.65898 14.4787 4.71597 14.2486 4.71481C14.0184 4.71364 13.7922 4.65436 13.5911 4.54246C13.3939 4.42634 13.2296 4.26187 13.1137 4.06459C12.9978 3.8673 12.9341 3.64372 12.9286 3.41496C12.9161 3.09829 12.8861 2.88163 12.8078 2.69579C12.7231 2.49307 12.5992 2.30903 12.4434 2.15417C12.2875 1.99932 12.1027 1.87669 11.8994 1.79329ZM12.9355 9.99996C12.9355 11.3808 11.8071 12.5 10.4163 12.5C9.02463 12.5 7.89714 11.3808 7.89714 9.99996C7.89714 8.61913 9.02463 7.49996 10.4163 7.49996C11.808 7.49996 12.9355 8.61913 12.9355 9.99996Z" fill="#637381"/>
<path d="M12.9354 10C12.9354 11.3808 11.8071 12.5 10.4163 12.5C9.02459 12.5 7.89709 11.3808 7.89709 10C7.89709 8.61917 9.02459 7.5 10.4163 7.5C11.8079 7.5 12.9354 8.61917 12.9354 10Z" fill="#637381"/>
</svg>
